<svg xmlns="http://www.w3.org/2000/svg" width="902" height="1410" viewBox="0 0 1310 2048"><path d="M396.129 36.268c32.907-1.112 70.347-.253 103.513-.25l191.957.024 153.316-.032c26.881-.007 53.826-.306 80.674.238 24.267.492 35.648 18.835 35.38 41.32-.385 32.278 1.088 64.619-.716 96.824-.912 16.267-12.77 24.537-27.25 28.567 3.572 38.368 4.485 73.872 10.742 112.818 32.046 199.446 103.686 394.518 172.099 583.834a7418 7418 0 0 1 59.244 165.163c19.298 56.519 39.146 116.167 46.145 175.715 21.508 183.063-92.63 595.031-206.539 738.772-23.572 29.744-46.707 51.68-85.983 56.279-113.553 1.52-230.483.09-344.374.09l-125.208.01c-59.888-.01-98.48 8.278-139.67-44.061-71.772-91.192-117.669-211.398-150.665-322.026-38.425-128.824-71.482-270.436-68.645-405.449 2.478-65.337 36.25-163.877 57.658-224.745a9248 9248 0 0 1 52.963-147.311c65.825-180.797 133.518-367.54 166.489-557.593 7.384-42.566 11.305-88.287 14.535-131.302-27.113-10.83-28.164-19.259-28.66-47.71-.377-21.656.323-43.952-.08-65.565-.498-26.731 1.601-49.11 33.075-53.61" style="stroke-linecap:round;fill:#50543a"/><path d="m400.45 203.074 203.624.023 320.852-.155c.329 17.471 1.963 33.631 3.16 50.997 29.92 292.311 157.55 566.324 248.522 842.598 17.948 54.51 34.416 112.618 38.616 170.216 3.69 88.952-17.728 201.11-37.656 287.173a1776 1776 0 0 1-45.386 160.388c-3.2 9.448-11.289 34.983-15.018 42.961-29.087 79.354-73.503 186.253-135.936 245.2-9.566 9.03-29.435 21.537-41.827 22.886-25.043 2.73-54.148 1.82-79.551 1.82l-140.623-.02-214.737.05-70.51-.03c-46.876-.06-72.819 1.48-105.184-38.312-75.12-93.542-121.084-218.227-154.987-333.104-33.247-112.647-68.392-262.077-65.652-380.044 2.241-96.53 52.525-218.646 85.013-310.059C256.33 787.952 325.81 611.39 367.406 426.75c11.356-49.951 25.477-122.2 28.697-173.474-.3-9.072 3.85-37.17 4.347-50.202" style="stroke-linecap:round;fill:#7e913a"/><path d="m400.45 203.074 203.624.023 320.852-.155c.33 17.471 1.963 33.631 3.16 50.997l-213.032.124c-40.18.005-82.212.644-122.274-.148-2.196 8.965-5.465 20.885-6.488 29.776l-.713.167-.118 1.12c-.81 7.293-3.307 18.254-5.297 25.35-22.165 79.016-23.486 159.916-34.528 240.348a754 754 0 0 1-28.242 122.669c-18.775 59.485-49.768 113.448-71.317 171.668-9.892 28.059-21.165 56.347-30.062 84.684-33.577 106.942-73.61 213.65-78.096 326.858-1.413 35.673 1.657 73.465 4.659 108.988a1571.6 1571.6 0 0 0 33.597 225.335c12.367 57.069 21.776 140.842 58.217 187.373 47.16 60.218 122.315 101.26 198.61 108.418 139.125 11.718 292.382.11 413.83-74.835 6.388-3.94 30.376-23.125 34.796-21.356a304 304 0 0 1 3.92-9.368c4.489-.03 23.707-18.926 31.616-23.835-29.087 79.354-73.503 186.253-135.935 245.2-9.566 9.03-29.435 21.537-41.828 22.886-25.043 2.73-54.148 1.82-79.551 1.82l-140.623-.02-214.737.05-70.51-.03c-46.876-.06-72.818 1.48-105.184-38.312-75.12-93.542-121.084-218.227-154.987-333.104-33.246-112.647-68.392-262.077-65.652-380.044 2.242-96.53 52.526-218.646 85.013-310.059 63.16-177.71 132.641-354.273 174.236-538.912 11.356-49.951 25.478-122.2 28.697-173.474-.3-9.072 3.85-37.17 4.348-50.202" style="stroke-linecap:round;fill:#6c7d3b"/><path d="m400.45 203.074 203.624.023 320.852-.155c.33 17.471 1.963 33.631 3.16 50.997l-213.032.124c-40.18.005-82.212.644-122.274-.148-2.196 8.965-5.465 20.885-6.488 29.776l-.713.167-171.19-.077c-4.66 41.174-12.142 81.54-20.816 122.026-37.072 173.04-98.22 338.387-158.465 504.336l-38.089 104.95c-29.105 79.994-62.543 175.305-67.922 260.548-2.476 39.222 5.31 101.29 11.552 140.902a1831 1831 0 0 0 52.51 231.374c31.67 105.969 75.057 227.984 142.247 317.146 13.454 17.857 37.317 40.112 59.7 41.282 11.08.57 21.556.72 32.857.75l54.243.01 175.298.03 177.816-.05 56.215.01c25.554-.03 51.84 1.88 71.888-16.797 51.971-48.43 93.997-133.803 118.205-199.82a304 304 0 0 1 3.92-9.368c4.489-.03 23.707-18.926 31.616-23.835-29.087 79.354-73.503 186.253-135.935 245.2-9.566 9.03-29.435 21.537-41.828 22.886-25.043 2.73-54.148 1.82-79.551 1.82l-140.623-.02-214.737.05-70.51-.03c-46.876-.06-72.818 1.48-105.184-38.312-75.12-93.542-121.084-218.227-154.987-333.104-33.246-112.647-68.392-262.077-65.652-380.044 2.242-96.53 52.526-218.646 85.013-310.059 63.16-177.71 132.641-354.273 174.236-538.912 11.356-49.951 25.478-122.2 28.697-173.474-.3-9.072 3.85-37.17 4.348-50.202" style="stroke-linecap:round;fill:#cfca8a"/><path d="m400.451 203.085 203.624.022c-4.339 14.839-7.385 34.88-11.067 50.61-65.388-1.05-131.449.805-196.904-.43-.3-9.073 3.85-37.17 4.347-50.203" style="stroke-linecap:round;fill:#7e913a"/><path d="M592.779 253.916c40.06.792 82.092.153 122.274.148l213.031-.124c29.92 292.311 157.551 566.324 248.522 842.598 17.948 54.51 34.417 112.618 38.617 170.216 3.69 88.952-17.729 201.11-37.657 287.173a1776 1776 0 0 1-45.385 160.388c-3.2 9.448-11.29 34.983-15.019 42.961-7.909 4.909-27.127 23.805-31.617 23.835 11.01-31.174 22.238-59.438 32.647-91.641a1764.4 1764.4 0 0 0 67.503-293.732c4.65-35.073 9.31-75.415 8.87-110.728-1.6-58.758-17.649-119.536-35.887-175.224-70.513-215.23-160.772-424.147-214.758-644.707-13.901-56.791-29.347-122.834-34.13-181.173l-211.099-.041c-36.986.002-75.544.554-112.4-.173 1.022-8.891 4.29-20.811 6.488-29.776" style="stroke-linecap:round;fill:#f4edb4"/><path d="M655.377 988.202c107.9-5.31 214.81 15.802 300.283 85.319 76.012 61.827 95.98 162.397 29.373 239.252-64.845 74.805-167.575 105.659-263.283 113.127-.65.08-1.484.19-2.147.22-107.642 4.869-218.47-16.997-303.38-86.733-77.366-63.537-91.577-164.537-23.054-240.672 65.797-73.105 166.517-103.4 262.208-110.513" style="stroke-linecap:round;fill:#424634"/><path d="M664.646 996.208c99.486-6.46 216.563 22.074 291.987 89.25 70.76 63.017 83.208 156.729 16.246 227.814-67.25 71.396-166.24 99.15-261.406 104.59-105.142 3.18-212.458-19.037-294.165-89.013-71.673-61.367-80.852-156.618-15.834-226.704 67.052-72.286 167.497-100.63 263.172-105.937" style="stroke-linecap:round;fill:#50543a"/><path d="m668.627 1018.222.783-.09c88.443-3.1 180.074 17.426 247.912 76.784 63.18 55.29 72.84 138.643 13.304 200.55-56.448 58.709-144.633 84.533-224.383 87.833l-1.448.18c-84.307 3.149-179.75-18.547-244.366-73.176-64.253-54.329-77.753-132.753-21.366-196.86 56.78-64.557 146.559-90.272 229.564-95.221" style="stroke-linecap:round;fill:#424634"/><path d="M694.233 1064.173c4.322-.54 10.068-.43 14.538-.53 32.386-.71 70.397 4.929 89.741 34.143 12.355 18.656 15.589 45.2 11.133 67.156a96.85 96.85 0 0 1-42.991 61.678 122.2 122.2 0 0 1-91.184 16.527c-5.136 30.704-13.6 60.648-9.77 91.072-18.644.58-38.473.26-57.216.23 14.131-67.237 24.854-143.032 37.029-211.238l29.697-8.349c7.563-2.02 15.611-3.709 23.277-5.438-4.628 33.923-11.101 70.685-16.746 104.569 9.515.83 19.064.57 28.388-1.91 37.073-9.828 57.746-46.76 48.616-83.623-3.016-12.188-11.643-23.586-22.835-29.514-21.443-11.358-49.82-8.809-72.611-2.67-18.576 5.25-39.058 17.307-48.3 34.743-9.718 18.326-4.91 33.793.854 52.03-21.263 5.879-43.227.94-44.628-24.095-3.741-66.887 71.626-89.662 123.008-94.782" style="stroke-linecap:round;fill:#cfca8a"/></svg>